<svg xmlns="http://www.w3.org/2000/svg" viewBox="0 0 138.94 193.85"><defs><style>.cls-1{fill:#939598;}.cls-2{fill:#6d6e71;}.cls-3{fill:none;}.cls-4{fill:#e6e7e8;}.cls-5{fill:#58595b;}.cls-6{fill:#414042;}</style></defs><g id="Layer_2" data-name="Layer 2"><g id="Layer_1-2" data-name="Layer 1"><polygon class="cls-1" points="106.46 192.45 62.71 193.25 30.35 193.85 22.27 162.34 55.42 161.72 103.69 160.84 104.5 170.06 106.46 192.45"/><polygon class="cls-2" points="23.37 31.32 0 62.55 9.22 102.41 23.06 162.33 55.41 161.72 34.23 70.04 23.37 31.32"/><line class="cls-3" x1="138.93" y1="191.86" x2="138.19" y2="191.88"/><path class="cls-4" d="M138.93,189.47c.25,2.85-3.18,2.45-6,2.5l-26.43.48h0l-2-22.39-.81-9.22L100,119.21l31.54-2.77,3.84,43.82v.17Z"/><path class="cls-5" d="M48.35,0,29,25.06l-5.39,7L34.22,70,53.49,45.12,73.78,20.54a.71.71,0,0,0-.11-1Z"/><polygon class="cls-6" points="72.86 20.05 53.49 45.12 96.51 80.18 116.56 55.67 72.86 20.05"/></g></g></svg>